<svg width="52" height="52" viewBox="0 0 52 52" fill="none" xmlns="http://www.w3.org/2000/svg">
<rect width="52" height="52" rx="12" fill="#FEFFFF"/>
<path fill-rule="evenodd" clip-rule="evenodd" d="M26.4514 13.7038C27.5865 13.7038 28.6609 13.9105 29.6259 14.2803L31.0459 12.1145C31.1221 11.9985 31.2789 11.9646 31.397 12.0412C31.5141 12.1167 31.5483 12.272 31.471 12.389L30.1007 14.4804C32.3687 15.5174 33.9134 18.2421 33.9576 20.514H18.9474C18.9916 18.2421 20.5363 15.5174 22.8043 14.4804L21.434 12.3879C21.3578 12.272 21.391 12.1156 21.5091 12.0401C21.6262 11.9646 21.7841 11.9974 21.8602 12.1134L23.2802 14.2792C24.2442 13.9094 25.3196 13.7027 26.4536 13.7027L26.4514 13.7038ZM25.0833 33.6191V37.3304C25.0833 38.2493 24.3248 39.0007 23.3984 39.0007C22.4709 39.0007 21.7134 38.2493 21.7134 37.3304V33.6191H20.3C19.5492 33.6191 18.9353 33.0109 18.9353 32.2671V21.1374H33.9686V32.2671C33.9686 33.0098 33.3547 33.6191 32.6039 33.6191H31.1905V37.3304C31.1905 38.2493 30.4331 39.0007 29.5056 39.0007C28.5792 39.0007 27.8206 38.2493 27.8206 37.3304V33.6191H25.0844H25.0833ZM16.685 20.9132C17.6114 20.9132 18.3699 21.6647 18.3699 22.5824V29.2602C18.3699 30.179 17.6114 30.9294 16.685 30.9294C15.7575 30.9294 15 30.1779 15 29.2602V22.5824C15 21.6647 15.7586 20.9132 16.685 20.9132V20.9132ZM36.3139 20.9132C37.2414 20.9132 38 21.6647 38 22.5824V29.2602C38 30.179 37.2414 30.9294 36.3139 30.9294C35.3864 30.9294 34.6278 30.1779 34.6278 29.2602V22.5824C34.6278 21.6647 35.3864 20.9132 36.3139 20.9132V20.9132ZM23.1124 16.434C23.5894 16.434 23.9759 16.8168 23.9759 17.2894C23.9759 17.7619 23.5894 18.1447 23.1124 18.1447C22.6354 18.1447 22.2489 17.7619 22.2489 17.2894C22.2489 16.8168 22.6354 16.434 23.1124 16.434ZM29.8854 16.434C30.3624 16.434 30.7489 16.8168 30.7489 17.2894C30.7489 17.7619 30.3624 18.1447 29.8854 18.1447C29.4084 18.1447 29.0219 17.7619 29.0219 17.2894C29.0219 16.8168 29.4084 16.434 29.8854 16.434Z" fill="black"/>
</svg>
