<svg width="190" height="56" viewBox="0 0 190 56" fill="none" xmlns="http://www.w3.org/2000/svg">
<g clip-path="url(#clip0_548_2172)">
<path d="M185.399 0.777832H3.87694C2.16373 0.777832 0.774902 2.17072 0.774902 3.88894V52.1112C0.774902 53.8294 2.16373 55.2223 3.87694 55.2223H185.399C187.112 55.2223 188.501 53.8294 188.501 52.1112V3.88894C188.501 2.17072 187.112 0.777832 185.399 0.777832Z" stroke="white" stroke-width="2.1592"/>
<path d="M44.8284 26.6904C44.7925 22.3837 48.3458 20.2844 48.5112 20.1906C46.4972 17.2474 43.3755 16.8434 42.275 16.8145C39.6496 16.5404 37.1105 18.3872 35.7727 18.3872C34.4132 18.3872 32.3561 16.8434 30.1335 16.8867C27.2779 16.93 24.6094 18.5892 23.1493 21.1573C20.1283 26.4018 22.3797 34.1062 25.2784 38.3479C26.7241 40.4255 28.4144 42.7412 30.6298 42.6618C32.7948 42.5752 33.6076 41.2767 36.2186 41.2767C38.8081 41.2767 39.5705 42.6618 41.8291 42.6113C44.1523 42.5752 45.6197 40.5265 47.0151 38.4345C48.691 36.054 49.36 33.7094 49.3887 33.594C49.3312 33.5579 44.8716 31.8483 44.8284 26.6904ZM40.5631 14.0228C41.7283 12.5584 42.5267 10.5746 42.3038 8.55469C40.6207 8.62679 38.5059 9.7233 37.2975 11.1517C36.2258 12.4141 35.262 14.4772 35.5138 16.4178C37.3983 16.5548 39.3475 15.4583 40.5631 14.0228Z" fill="white"/>
<path d="M76.2028 42.3515H73.1747L71.5132 37.1287H65.7517L64.1693 42.3515H61.2202L66.9313 24.5621H70.4558L76.2028 42.3515ZM71.0168 34.9356L69.5135 30.29C69.3553 29.8138 69.0532 28.6957 68.6216 26.9355H68.5713C68.3987 27.693 68.1109 28.8111 67.7297 30.29L66.2552 34.9356H71.0168ZM90.8622 35.7797C90.8622 37.9583 90.2721 39.6824 89.0925 40.9521C88.0347 42.0774 86.7187 42.6401 85.1506 42.6401C83.453 42.6401 82.2378 42.0341 81.4972 40.8222V47.5528H78.6557V33.7382C78.6557 32.3676 78.62 30.9608 78.5479 29.5253H81.0505L81.2095 31.5596H81.2591C82.2091 30.0303 83.6477 29.2583 85.5748 29.2583C87.0855 29.2583 88.3442 29.8571 89.3515 31.0546C90.3582 32.2522 90.8622 33.832 90.8622 35.7797ZM87.9704 35.8879C87.9704 34.6399 87.6896 33.6084 87.1289 32.8004C86.517 31.9564 85.6904 31.5379 84.6543 31.5379C83.9571 31.5379 83.3165 31.776 82.7481 32.2377C82.1804 32.7066 81.8058 33.3198 81.6337 34.07C81.5546 34.3514 81.5111 34.6471 81.5042 34.9356V37.0782C81.5042 38.0088 81.7919 38.7951 82.3603 39.4443C82.928 40.0864 83.6694 40.411 84.5822 40.411C85.6539 40.411 86.4884 39.9926 87.0855 39.1703C87.6679 38.3334 87.9704 37.2441 87.9704 35.8879ZM105.578 35.7797C105.578 37.9583 104.989 39.6824 103.809 40.9521C102.752 42.0774 101.436 42.6401 99.8675 42.6401C98.1699 42.6401 96.9539 42.0341 96.2133 40.8222V47.5528H93.3718V33.7382C93.3718 32.3676 93.3361 30.9608 93.264 29.5253H95.7673L95.9255 31.5596H95.9759C96.9252 30.0303 98.3637 29.2583 100.292 29.2583C101.802 29.2583 103.061 29.8571 104.068 31.0546C105.068 32.2522 105.578 33.832 105.578 35.7797ZM102.679 35.8879C102.679 34.6399 102.399 33.6084 101.838 32.8004C101.227 31.9564 100.399 31.5379 99.3642 31.5379C98.6662 31.5379 98.0256 31.776 97.4502 32.2377C96.8825 32.7066 96.5079 33.3198 96.3358 34.07C96.2489 34.4235 96.1993 34.712 96.1993 34.9356V37.0782C96.1993 38.0088 96.487 38.7951 97.0547 39.4443C97.6231 40.0864 98.3637 40.411 99.285 40.411C100.356 40.411 101.19 39.9926 101.788 39.1703C102.385 38.3334 102.679 37.2441 102.679 35.8879ZM122.028 37.3667C122.028 38.8817 121.503 40.1153 120.453 41.0603C119.303 42.0991 117.684 42.6185 115.62 42.6185C113.713 42.6185 112.182 42.2506 111.023 41.5075L111.678 39.1342C112.922 39.8772 114.296 40.2451 115.785 40.2451C116.857 40.2451 117.691 39.9998 118.288 39.5164C118.885 39.0331 119.187 38.3839 119.187 37.576C119.187 36.8546 118.936 36.2486 118.446 35.7508C117.957 35.2603 117.144 34.7986 116.001 34.3802C112.894 33.2188 111.34 31.5163 111.34 29.2873C111.34 27.83 111.886 26.6326 112.987 25.7019C114.08 24.7713 115.534 24.3025 117.346 24.3025C118.957 24.3025 120.302 24.5838 121.374 25.1465L120.662 27.4694C119.655 26.9211 118.525 26.6542 117.252 26.6542C116.252 26.6542 115.461 26.8994 114.9 27.39C114.425 27.83 114.188 28.3639 114.188 28.9987C114.188 29.6984 114.462 30.2827 115.009 30.7372C115.483 31.1556 116.339 31.6173 117.583 32.1079C119.108 32.7282 120.23 33.4424 120.95 34.272C121.669 35.1016 122.028 36.1332 122.028 37.3667ZM131.451 31.6678H128.315V37.8934C128.315 39.4804 128.868 40.2667 129.977 40.2667C130.487 40.2667 130.904 40.2234 131.242 40.1369L131.321 42.301C130.761 42.5103 130.027 42.6185 129.113 42.6185C127.991 42.6185 127.113 42.2722 126.481 41.5869C125.848 40.9015 125.531 39.7473 125.531 38.1315V31.6678H123.669V29.5325H125.531V27.1808L128.322 26.3368V29.5325H131.458L131.451 31.6678ZM145.556 35.8374C145.556 37.8068 144.995 39.43 143.873 40.6924C142.7 41.998 141.14 42.6473 139.19 42.6473C137.313 42.6473 135.817 42.0197 134.702 40.7789C133.587 39.5309 133.034 37.9511 133.034 36.0539C133.034 34.0628 133.609 32.4397 134.76 31.17C135.911 29.9004 137.457 29.2728 139.406 29.2728C141.284 29.2728 142.794 29.9004 143.93 31.1484C145.009 32.3531 145.556 33.9185 145.556 35.8374ZM142.607 35.9023C142.607 34.7265 142.355 33.7166 141.844 32.8797C141.248 31.8626 140.399 31.3504 139.291 31.3504C138.154 31.3504 137.277 31.8626 136.687 32.8797C136.177 33.7237 135.925 34.7481 135.925 35.9601C135.925 37.1359 136.177 38.1458 136.687 38.9899C137.299 40.007 138.162 40.5192 139.27 40.5192C140.356 40.5192 141.204 39.9998 141.823 38.9683C142.348 38.0954 142.607 37.0782 142.607 35.9023ZM154.799 32.0357C154.504 31.9852 154.202 31.9564 153.9 31.9564C152.9 31.9564 152.131 32.3315 151.584 33.089C151.109 33.7598 150.872 34.6038 150.872 35.621V42.3515H148.031V33.565C148.031 32.2161 148.009 30.8742 147.951 29.5253H150.426L150.526 31.978H150.605C150.908 31.1339 151.375 30.4559 152.03 29.9437C152.619 29.4964 153.346 29.2583 154.086 29.2583C154.353 29.2583 154.583 29.28 154.799 29.3089V32.0357ZM167.509 35.3325C167.516 35.7653 167.48 36.1981 167.408 36.6237H158.878C158.906 37.8934 159.324 38.86 160.115 39.5309C160.833 40.1296 161.762 40.4254 162.906 40.4254C164.171 40.4254 165.322 40.2234 166.358 39.8195L166.804 41.796C165.595 42.3227 164.164 42.5896 162.517 42.5896C160.532 42.5896 158.978 42.0053 157.841 40.8366C156.712 39.668 156.144 38.0954 156.144 36.126C156.144 34.1926 156.669 32.584 157.727 31.2999C158.827 29.9292 160.323 29.2439 162.201 29.2439C164.042 29.2439 165.437 29.9292 166.387 31.2999C167.127 32.3892 167.509 33.7309 167.509 35.3325ZM164.797 34.5966C164.819 33.7526 164.632 33.024 164.243 32.4036C163.754 31.6101 162.992 31.2134 161.977 31.2134C161.05 31.2134 160.294 31.6029 159.711 32.3747C159.237 32.9879 158.957 33.7309 158.87 34.5895L164.797 34.5966Z" fill="white"/>
<path d="M64.9319 18.28C64.1408 18.28 63.4575 18.2439 62.8892 18.179V9.57289C63.6876 9.45023 64.4932 9.38529 65.2988 9.39252C68.5571 9.39252 70.0605 11.0012 70.0605 13.6198C70.0532 16.6424 68.2838 18.28 64.9319 18.28ZM65.4138 10.4963C64.9751 10.4963 64.6011 10.5251 64.2918 10.59V17.1258C64.4572 17.1547 64.7809 17.1618 65.2341 17.1618C67.3703 17.1618 68.5859 15.9427 68.5859 13.6631C68.5787 11.6216 67.4782 10.4963 65.4138 10.4963ZM74.7358 18.3449C72.9016 18.3449 71.7076 16.9671 71.7076 15.0987C71.7076 13.1509 72.9232 11.7659 74.8365 11.7659C76.649 11.7659 77.8649 13.0788 77.8649 14.9977C77.8649 16.9671 76.6131 18.3449 74.7358 18.3449ZM74.7861 12.7902C73.7791 12.7902 73.1318 13.7352 73.1318 15.0626C73.1318 16.3611 73.7935 17.3061 74.7718 17.3061C75.7572 17.3061 76.4117 16.2962 76.4117 15.0337C76.4189 13.7497 75.7715 12.7902 74.7861 12.7902ZM88.3374 11.8957L86.3738 18.2006H85.0934L84.2807 15.4666C84.079 14.7957 83.9069 14.1176 83.7774 13.4323H83.7487C83.6479 14.1176 83.4532 14.8101 83.2446 15.4666L82.3815 18.2006H81.0871L79.2383 11.8957H80.6769L81.3888 14.8895C81.5548 15.6036 81.6982 16.2745 81.8138 16.9166H81.8425C81.9433 16.3827 82.1155 15.7263 82.3605 14.9039L83.2523 11.8957H84.3885L85.2446 14.839C85.4532 15.5531 85.6184 16.2529 85.7479 16.9166H85.7836C85.8775 16.2673 86.0139 15.582 86.2086 14.839L86.9709 11.8957H88.3374ZM95.5806 18.2006H94.1855V14.5793C94.1855 13.4612 93.7605 12.9057 92.9191 12.9057C92.0924 12.9057 91.5239 13.6198 91.5239 14.4494V18.2006H90.1288V13.6992C90.1288 13.1437 90.1141 12.545 90.0784 11.8957H91.3083L91.3727 12.8696H91.4084C91.783 12.1987 92.5453 11.7659 93.4015 11.7659C94.7175 11.7659 95.5876 12.7759 95.5876 14.4278L95.5806 18.2006ZM99.4287 18.2006H98.0336V9.00293H99.4287V18.2006ZM104.528 18.3449C102.694 18.3449 101.5 16.9671 101.5 15.0987C101.5 13.1509 102.716 11.7659 104.629 11.7659C106.442 11.7659 107.658 13.0788 107.658 14.9977C107.658 16.9671 106.399 18.3449 104.528 18.3449ZM104.579 12.7902C103.571 12.7902 102.925 13.7352 102.925 15.0626C102.925 16.3611 103.586 17.3061 104.564 17.3061C105.55 17.3061 106.204 16.2962 106.204 15.0337C106.204 13.7497 105.565 12.7902 104.579 12.7902ZM113.167 18.2006L113.066 17.472H113.03C112.606 18.0563 111.98 18.3377 111.189 18.3377C110.059 18.3377 109.261 17.5442 109.261 16.4838C109.261 14.9256 110.606 14.1248 112.937 14.1248V14.0094C112.937 13.1798 112.498 12.7614 111.635 12.7614C111.016 12.7614 110.47 12.9201 109.995 13.2303L109.714 12.3069C110.297 11.9462 111.023 11.7587 111.873 11.7587C113.512 11.7587 114.346 12.6243 114.346 14.3628V16.6857C114.346 17.3206 114.375 17.8183 114.44 18.1934L113.167 18.2006ZM112.973 15.0626C111.419 15.0626 110.643 15.4377 110.643 16.3322C110.643 16.9959 111.045 17.3206 111.599 17.3206C112.312 17.3206 112.973 16.7795 112.973 16.0365V15.0626ZM121.115 18.2006L121.051 17.1907H121.014C120.612 17.9554 119.936 18.3449 118.993 18.3449C117.476 18.3449 116.353 17.0104 116.353 15.1275C116.353 13.1581 117.519 11.7659 119.108 11.7659C119.95 11.7659 120.547 12.0472 120.878 12.6243H120.906V9.00293H122.302V16.4981C122.302 17.1041 122.316 17.6812 122.352 18.1934H121.115V18.2006ZM120.913 14.4927C120.913 13.6126 120.331 12.8552 119.439 12.8552C118.403 12.8552 117.77 13.7786 117.77 15.0698C117.77 16.3395 118.425 17.2124 119.411 17.2124C120.288 17.2124 120.913 16.4477 120.913 15.5388V14.4927ZM131.178 18.3449C129.344 18.3449 128.15 16.9671 128.15 15.0987C128.15 13.1509 129.365 11.7659 131.279 11.7659C133.091 11.7659 134.307 13.0788 134.307 14.9977C134.307 16.9671 133.056 18.3449 131.178 18.3449ZM131.229 12.7902C130.221 12.7902 129.574 13.7352 129.574 15.0626C129.574 16.3611 130.236 17.3061 131.214 17.3061C132.199 17.3061 132.854 16.2962 132.854 15.0337C132.861 13.7497 132.213 12.7902 131.229 12.7902ZM141.824 18.2006H140.428V14.5793C140.428 13.4612 140.003 12.9057 139.162 12.9057C138.335 12.9057 137.767 13.6198 137.767 14.4494V18.2006H136.371V13.6992C136.371 13.1437 136.357 12.545 136.321 11.8957H137.55L137.616 12.8696H137.651C138.026 12.1987 138.788 11.7659 139.644 11.7659C140.96 11.7659 141.831 12.7759 141.831 14.4278V18.2006H141.824ZM151.217 12.9489H149.678V16.0076C149.678 16.7867 149.944 17.1763 150.491 17.1763C150.735 17.1763 150.944 17.1474 151.109 17.1113L151.145 18.1718C150.872 18.2728 150.512 18.3305 150.059 18.3305C148.958 18.3305 148.297 17.7245 148.297 16.123V12.9418H147.376V11.8885H148.297V10.7343L149.671 10.3159V11.8885H151.21L151.217 12.9489ZM158.619 18.2006H157.223V14.6081C157.223 13.4828 156.799 12.9129 155.957 12.9129C155.231 12.9129 154.562 13.4034 154.562 14.4062V18.2079H153.166V9.00293H154.562V12.7902H154.591C155.03 12.1049 155.669 11.7659 156.482 11.7659C157.813 11.7659 158.626 12.8046 158.626 14.4494L158.619 18.2006ZM166.192 15.3872H161.999C162.028 16.5776 162.812 17.2556 163.978 17.2556C164.596 17.2556 165.171 17.1547 165.674 16.9598L165.891 17.9337C165.294 18.1934 164.596 18.3233 163.783 18.3233C161.819 18.3233 160.654 17.0753 160.654 15.1492C160.654 13.2158 161.848 11.7659 163.625 11.7659C165.228 11.7659 166.236 12.9561 166.236 14.7597C166.25 14.9616 166.236 15.178 166.192 15.3872ZM164.912 14.3845C164.912 13.4106 164.423 12.7253 163.532 12.7253C162.726 12.7253 162.093 13.4251 162.006 14.3845H164.912Z" fill="white"/>
</g>
<defs>
<clipPath id="clip0_548_2172">
<rect width="190" height="56" fill="white"/>
</clipPath>
</defs>
</svg>
