<svg width="52" height="52" viewBox="0 0 52 52" fill="none" xmlns="http://www.w3.org/2000/svg">
<rect width="52" height="52" rx="12" fill="#FEFFFF"/>
<path d="M33.3737 26.3443C33.4117 30.4302 36.9607 31.7899 37 31.8073C36.97 31.9032 36.4329 33.745 35.1302 35.6474C34.0041 37.2922 32.8353 38.931 30.9942 38.9649C29.185 38.9982 28.6033 37.8928 26.5349 37.8928C24.4672 37.8928 23.8209 38.931 22.1083 38.9982C20.3311 39.0654 18.9778 37.2196 17.8423 35.5809C15.5221 32.2287 13.749 26.1086 16.1298 21.9773C17.3126 19.9257 19.4263 18.6266 21.7205 18.5933C23.4657 18.56 25.1129 19.7665 26.1798 19.7665C27.2459 19.7665 29.2476 18.3156 31.352 18.5287C32.2329 18.5653 34.7058 18.8843 36.2936 21.2069C36.1657 21.2862 33.343 22.9282 33.3737 26.3443ZM29.9737 16.311C30.9172 15.1696 31.5522 13.5808 31.379 12C30.019 12.0546 28.3744 12.9056 27.3989 14.0463C26.5247 15.0564 25.759 16.6732 25.9656 18.2228C27.4815 18.34 29.0301 17.453 29.9737 16.311Z" fill="black"/>
</svg>
