<svg xmlns="http://www.w3.org/2000/svg" xmlns:xlink="http://www.w3.org/1999/xlink" version="1.1" width="256" height="256" viewBox="0 0 256 256" xml:space="preserve">

<defs>
</defs>
<g style="stroke: none; stroke-width: 0; stroke-dasharray: none; stroke-linecap: butt; stroke-linejoin: miter; stroke-miterlimit: 10; fill: none; fill-rule: nonzero; opacity: 1;" transform="translate(1.4065934065934016 1.4065934065934016) scale(2.81 2.81)" >
	<path d="M 89.546 44.692 c -0.565 -1.27 -1.593 -2.243 -2.892 -2.741 c -1.008 -0.386 -2.086 -0.45 -3.11 -0.194 c -0.771 -1.134 -1.949 -1.875 -3.242 -2.147 c 0.138 -0.239 0.271 -0.482 0.372 -0.744 c 0.386 -1.007 0.449 -2.084 0.194 -3.11 c 0.875 -0.592 1.547 -1.436 1.933 -2.443 c 0.497 -1.298 0.459 -2.713 -0.107 -3.982 c -0.565 -1.27 -1.593 -2.243 -2.892 -2.741 c -1.008 -0.385 -2.086 -0.45 -3.11 -0.194 c -1.219 -1.793 -3.447 -2.646 -5.553 -2.124 c -1.218 -1.795 -3.446 -2.651 -5.553 -2.13 c -1.203 -1.771 -3.389 -2.621 -5.471 -2.142 l -1.535 -3.442 c -0.42 -0.942 -1.385 -1.455 -2.399 -1.278 c -1.018 0.178 -1.751 0.989 -1.827 2.02 c -0.178 2.426 -0.455 4.732 -0.808 6.943 h -7.101 V 16.23 c 0 -0.361 -0.195 -0.694 -0.509 -0.871 c -0.314 -0.177 -0.7 -0.171 -1.009 0.016 l -13.922 8.429 l -13.922 -8.429 c -0.309 -0.188 -0.695 -0.194 -1.009 -0.016 c -0.314 0.177 -0.509 0.51 -0.509 0.871 v 8.013 H 1 c -0.552 0 -1 0.448 -1 1 v 8.87 c 0 0.552 0.448 1 1 1 h 4.414 V 62.82 c 0 0.553 0.448 1 1 1 h 17.669 l 4.195 9.404 c 0.144 0.323 0.447 0.546 0.798 0.586 c 0.039 0.005 0.077 0.007 0.115 0.007 c 0.311 0 0.606 -0.145 0.796 -0.396 c 2.337 -3.077 4.906 -5.558 7.653 -7.417 l -2.173 4.275 c -0.326 0.643 -0.363 1.395 -0.102 2.067 c 0.262 0.672 0.799 1.201 1.475 1.453 l 2.175 0.809 c 0.289 0.108 0.588 0.162 0.887 0.162 c 0.372 0 0.742 -0.083 1.088 -0.249 c 0.625 -0.298 1.09 -0.823 1.311 -1.48 l 0.558 -1.665 l 0.849 1.449 c 0.349 0.597 0.936 1.029 1.608 1.187 c 0.672 0.16 1.39 0.03 1.967 -0.349 l 1.899 -1.248 c 0.606 -0.398 1.014 -1.039 1.116 -1.758 s -0.108 -1.448 -0.58 -2.002 l -3.679 -4.312 c 0.061 -0.103 0.117 -0.209 0.161 -0.323 c 0.203 -0.529 0.187 -1.106 -0.043 -1.624 l -0.013 -0.03 c 9.582 -2.01 21.099 1.919 33.421 11.451 c 0.406 0.314 0.881 0.471 1.355 0.471 c 0.479 0 0.959 -0.16 1.367 -0.481 c 0.811 -0.637 1.072 -1.697 0.652 -2.639 l -1.534 -3.439 c 0.842 -0.59 1.491 -1.414 1.867 -2.395 c 0.386 -1.008 0.449 -2.085 0.193 -3.111 c 1.796 -1.22 2.648 -3.453 2.123 -5.56 c 0.875 -0.592 1.553 -1.429 1.939 -2.436 c 0.386 -1.008 0.449 -2.085 0.194 -3.109 c 0.875 -0.593 1.547 -1.437 1.933 -2.444 C 90.15 47.376 90.112 45.961 89.546 44.692 z M 74.991 45.485 c -0.505 0.225 -0.731 0.816 -0.506 1.32 c 0.349 0.782 0.372 1.652 0.066 2.452 c -0.183 0.476 -0.479 0.882 -0.845 1.215 l -5.896 -13.217 c 1.336 -0.133 2.671 0.575 3.249 1.869 c 0.225 0.503 0.815 0.73 1.32 0.505 c 1.614 -0.72 3.514 0.008 4.233 1.622 C 77.332 42.865 76.604 44.765 74.991 45.485 z M 75.314 28.017 c 0.108 0.242 0.308 0.432 0.556 0.527 c 0.248 0.095 0.523 0.088 0.765 -0.021 c 0.782 -0.348 1.65 -0.373 2.452 -0.066 c 0.8 0.307 1.432 0.906 1.78 1.687 c 0.349 0.782 0.372 1.653 0.066 2.453 c -0.307 0.799 -0.905 1.432 -1.687 1.78 c -0.242 0.108 -0.432 0.308 -0.526 0.555 c -0.095 0.248 -0.088 0.523 0.021 0.765 c 0.349 0.782 0.372 1.653 0.066 2.453 c -0.2 0.522 -0.535 0.962 -0.954 1.31 c -1.242 -1.669 -3.383 -2.458 -5.415 -1.957 c -0.771 -1.135 -1.951 -1.875 -3.243 -2.147 c 0.138 -0.239 0.271 -0.482 0.372 -0.745 c 0.386 -1.008 0.449 -2.085 0.193 -3.111 c 1.732 -1.177 2.574 -3.295 2.162 -5.335 C 73.308 25.963 74.717 26.677 75.314 28.017 z M 64.207 23.762 c 0.225 0.504 0.816 0.731 1.32 0.506 c 1.614 -0.72 3.514 0.008 4.233 1.622 c 0.72 1.614 -0.008 3.513 -1.622 4.233 c -0.505 0.225 -0.731 0.816 -0.506 1.32 c 0.349 0.782 0.372 1.653 0.066 2.453 c -0.182 0.476 -0.479 0.882 -0.845 1.215 l -5.896 -13.217 C 62.296 21.761 63.63 22.47 64.207 23.762 z M 44.442 18.004 v 6.238 H 34.138 L 44.442 18.004 z M 17.561 18.004 l 10.304 6.238 H 17.561 V 18.004 z M 2 26.243 h 14.561 h 13.994 h 0.892 h 13.994 h 7.761 c -0.461 2.436 -1.032 4.728 -1.712 6.871 H 2 V 26.243 z M 7.413 61.82 V 35.113 h 43.391 c -2.371 6.488 -5.821 11.452 -10.261 14.705 l -0.013 -0.03 c -0.477 -1.069 -1.733 -1.553 -2.803 -1.074 l -3.717 1.657 c -1.068 0.478 -1.549 1.735 -1.073 2.804 l 0.132 0.296 c -3.453 0.994 -7.327 1.33 -11.545 0.982 c -0.354 -0.029 -0.694 0.13 -0.898 0.419 c -0.204 0.288 -0.241 0.663 -0.097 0.985 l 2.66 5.963 H 7.413 z M 34.765 52.36 c -0.028 -0.063 0 -0.136 0.062 -0.163 l 3.715 -1.656 c 0.017 -0.008 0.034 -0.011 0.05 -0.011 c 0.047 0 0.092 0.026 0.113 0.072 l 5.624 12.609 c 0.023 0.053 -0.008 0.139 -0.062 0.162 l -3.715 1.658 c -0.062 0.026 -0.135 0 -0.162 -0.063 h 0 L 34.765 52.36 z M 29.43 70.901 l -3.778 -8.469 c 0 -0.001 -0.001 -0.002 -0.001 -0.003 l -2.622 -5.877 c 3.931 0.162 7.571 -0.253 10.864 -1.237 l 3.716 8.33 C 34.676 65.436 31.932 67.864 29.43 70.901 z M 48.318 70.375 c -0.013 0.088 -0.061 0.254 -0.234 0.368 l -1.899 1.248 c -0.167 0.109 -0.331 0.094 -0.413 0.073 c -0.083 -0.02 -0.238 -0.077 -0.338 -0.249 l -1.961 -3.349 c -0.199 -0.339 -0.578 -0.523 -0.966 -0.49 c -0.39 0.041 -0.721 0.306 -0.845 0.678 l -1.257 3.751 c -0.063 0.187 -0.199 0.275 -0.275 0.312 c -0.076 0.037 -0.23 0.088 -0.416 0.018 l -2.175 -0.81 c -0.194 -0.072 -0.277 -0.222 -0.31 -0.305 s -0.073 -0.25 0.021 -0.435 l 2.245 -4.417 c 0.31 0.168 0.653 0.273 1.011 0.273 c 0.288 0 0.581 -0.059 0.861 -0.184 l 3.032 -1.354 l 3.797 4.449 C 48.331 70.113 48.33 70.285 48.318 70.375 z M 81.05 72.235 c -0.129 0.104 -0.228 0.029 -0.263 0.001 C 67.809 62.198 55.573 58.163 45.311 60.503 l -0.85 -1.906 c 4.605 -1.721 9.228 -2.948 13.757 -3.637 c 0.546 -0.083 0.921 -0.593 0.838 -1.139 s -0.594 -0.921 -1.139 -0.838 c -4.703 0.715 -9.499 1.992 -14.272 3.784 l -0.605 -1.356 c 7.169 -3.731 13.312 -8.304 18.247 -13.617 c 0.376 -0.405 0.353 -1.038 -0.052 -1.414 c -0.404 -0.375 -1.038 -0.353 -1.413 0.052 c -4.755 5.119 -10.678 9.533 -17.599 13.148 l -0.847 -1.899 c 5.211 -3.682 9.167 -9.466 11.738 -17.106 c 0.037 -0.069 0.059 -0.142 0.079 -0.22 c 0.887 -2.678 1.599 -5.589 2.145 -8.704 c 0.056 -0.125 0.091 -0.262 0.091 -0.408 c 0 -0.023 -0.012 -0.042 -0.013 -0.065 c 0.414 -2.454 0.732 -5.023 0.931 -7.732 c 0.004 -0.046 0.013 -0.167 0.177 -0.196 c 0.162 -0.025 0.21 0.078 0.229 0.123 l 8.754 19.624 c 0 0 0 0 0 0 s 0 0 0 0 l 15.606 34.986 C 81.132 72.028 81.18 72.133 81.05 72.235 z M 81.844 60.846 c -0.505 0.225 -0.731 0.816 -0.506 1.32 c 0.577 1.293 0.214 2.76 -0.78 3.666 l -5.895 -13.215 c 1.338 -0.133 2.672 0.575 3.249 1.869 c 0.225 0.504 0.817 0.733 1.32 0.506 c 1.613 -0.719 3.514 0.008 4.233 1.621 C 84.184 58.227 83.457 60.126 81.844 60.846 z M 87.786 47.959 c -0.307 0.8 -0.905 1.432 -1.687 1.78 c -0.242 0.107 -0.432 0.308 -0.526 0.556 c -0.095 0.247 -0.088 0.522 0.021 0.765 c 0.597 1.338 0.188 2.863 -0.885 3.758 c -0.583 -0.787 -1.371 -1.4 -2.308 -1.759 c -1.008 -0.386 -2.087 -0.451 -3.111 -0.193 c -0.77 -1.134 -1.949 -1.875 -3.242 -2.148 c 0.138 -0.239 0.271 -0.482 0.372 -0.745 c 0.386 -1.008 0.449 -2.085 0.193 -3.11 c 1.732 -1.177 2.574 -3.295 2.162 -5.335 c 1.385 -0.203 2.795 0.512 3.393 1.852 c 0.108 0.242 0.308 0.432 0.556 0.527 c 0.247 0.095 0.523 0.088 0.765 -0.021 c 0.782 -0.348 1.65 -0.373 2.452 -0.066 c 0.8 0.307 1.432 0.906 1.78 1.688 C 88.068 46.288 88.092 47.159 87.786 47.959 z" style="stroke: none; stroke-width: 1; stroke-dasharray: none; stroke-linecap: butt; stroke-linejoin: miter; stroke-miterlimit: 10; fill: rgb(0,0,0); fill-rule: nonzero; opacity: 1;" transform=" matrix(1 0 0 1 0 0) " stroke-linecap="round" />
</g>
</svg>