<svg width="190" height="56" viewBox="0 0 190 56" fill="none" xmlns="http://www.w3.org/2000/svg">
<g clip-path="url(#clip0_548_2158)">
<path d="M185.4 0.777832H3.87743C2.16422 0.777832 0.775391 2.17072 0.775391 3.88894V52.1112C0.775391 53.8294 2.16422 55.2223 3.87743 55.2223H185.4C187.113 55.2223 188.502 53.8294 188.502 52.1112V3.88894C188.502 2.17072 187.113 0.777832 185.4 0.777832Z" stroke="white" stroke-width="2.1592"/>
<path d="M67.9472 14.6647C67.9472 15.7364 67.6801 16.674 67.0123 17.3438C66.2109 18.1475 65.276 18.5493 64.074 18.5493C62.8719 18.5493 61.937 18.1475 61.1356 17.3438C60.3343 16.54 59.9336 15.6024 59.9336 14.3969C59.9336 13.1913 60.3343 12.2537 61.1356 11.4499C61.937 10.6463 62.8719 10.2444 64.074 10.2444C64.6082 10.2444 65.1425 10.3783 65.6766 10.6463C66.2109 10.9141 66.6116 11.1821 66.8787 11.5839L66.2109 12.2536C65.6766 11.5839 65.0088 11.316 64.074 11.316C63.2726 11.316 62.4712 11.5839 61.937 12.2536C61.2692 12.7894 61.0021 13.5932 61.0021 14.5308C61.0021 15.4685 61.2692 16.2722 61.937 16.808C62.6048 17.3438 63.2726 17.7456 64.074 17.7456C65.0088 17.7456 65.6766 17.4777 66.3445 16.808C66.7451 16.4061 67.0123 15.8703 67.0123 15.2005H64.074V14.2629H67.9472C67.9472 14.2629 67.9472 14.3969 67.9472 14.6647Z" fill="white" stroke="white" stroke-width="0.21592" stroke-miterlimit="10"/>
<path d="M74.0916 11.316H70.4855V13.8611H73.8244V14.7987H70.4855V17.3438H74.0916V18.2814H69.417V10.2444H74.0916V11.316Z" fill="white" stroke="white" stroke-width="0.21592" stroke-miterlimit="10"/>
<path d="M78.5 18.2814H77.4312V11.1821H75.1606V10.2444H80.7699V11.1821H78.5V18.2814Z" fill="white" stroke="white" stroke-width="0.21592" stroke-miterlimit="10"/>
<path d="M84.6421 18.2814V10.2444H85.71V18.2814H84.6421Z" fill="white" stroke="white" stroke-width="0.21592" stroke-miterlimit="10"/>
<path d="M90.2517 18.2814H89.1838V11.1821H86.9131V10.2444H92.389V11.1821H90.1183V18.2814H90.2517Z" fill="white" stroke="white" stroke-width="0.21592" stroke-miterlimit="10"/>
<path d="M102.94 17.3438C102.139 18.1475 101.204 18.5493 100.002 18.5493C98.7997 18.5493 97.8652 18.1475 97.0634 17.3438C96.2623 16.54 95.8613 15.6024 95.8613 14.3969C95.8613 13.1913 96.2623 12.2537 97.0634 11.4499C97.8652 10.6463 98.7997 10.2444 100.002 10.2444C101.204 10.2444 102.139 10.6463 102.94 11.4499C103.741 12.2537 104.142 13.1913 104.142 14.3969C104.142 15.4685 103.741 16.54 102.94 17.3438ZM97.8652 16.674C98.3996 17.2099 99.2007 17.6117 100.002 17.6117C100.804 17.6117 101.605 17.3438 102.139 16.674C102.673 16.1382 103.074 15.3346 103.074 14.3969C103.074 13.4592 102.807 12.6555 102.139 12.1197C101.605 11.5839 100.804 11.1821 100.002 11.1821C99.2007 11.1821 98.3996 11.4499 97.8652 12.1197C97.3309 12.6555 96.93 13.4592 96.93 14.3969C96.93 15.2005 97.1975 16.0043 97.8652 16.674Z" fill="white" stroke="white" stroke-width="0.21592" stroke-miterlimit="10"/>
<path d="M105.612 18.2814V10.2444H106.814L110.687 16.54V14.9327V10.2444H111.756V18.2814H110.687L106.547 11.7179V13.3252V18.2814H105.612Z" fill="white" stroke="white" stroke-width="0.21592" stroke-miterlimit="10"/>
<path d="M95.5939 30.0693C92.3887 30.0693 89.8512 32.4804 89.8512 35.8292C89.8512 39.044 92.3887 41.5891 95.5939 41.5891C98.799 41.5891 101.337 39.178 101.337 35.8292C101.337 32.4804 98.799 30.0693 95.5939 30.0693ZM95.5939 39.178C93.8575 39.178 92.3887 37.7045 92.3887 35.6953C92.3887 33.686 93.8575 32.2126 95.5939 32.2126C97.3302 32.2126 98.799 33.5521 98.799 35.6953C98.799 37.8385 97.3302 39.178 95.5939 39.178ZM83.1725 30.0693C79.9673 30.0693 77.4298 32.4804 77.4298 35.8292C77.4298 39.044 79.9673 41.5891 83.1725 41.5891C86.3785 41.5891 88.9159 39.178 88.9159 35.8292C88.9159 32.4804 86.3785 30.0693 83.1725 30.0693ZM83.1725 39.178C81.4369 39.178 79.9673 37.7045 79.9673 35.6953C79.9673 33.686 81.4369 32.2126 83.1725 32.2126C84.9089 32.2126 86.3785 33.5521 86.3785 35.6953C86.3785 37.8385 84.9089 39.178 83.1725 39.178ZM68.3477 31.8107V34.2218H74.0907C73.9572 35.5614 73.423 36.6329 72.7552 37.3027C71.9538 38.1063 70.6182 39.044 68.3477 39.044C64.7416 39.044 62.0703 36.231 62.0703 32.6144C62.0703 28.9978 64.8751 26.1848 68.3477 26.1848C70.2175 26.1848 71.6867 26.9885 72.7552 27.9262L74.4915 26.1848C73.0223 24.8453 71.1524 23.7737 68.4813 23.7737C63.6731 23.7737 59.5327 27.7922 59.5327 32.6144C59.5327 37.4366 63.6731 41.4551 68.4813 41.4551C71.1524 41.4551 73.0223 40.6515 74.625 38.9101C76.2277 37.3027 76.7619 35.0255 76.7619 33.2842C76.7619 32.7484 76.7619 32.2126 76.6284 31.8107H68.3477ZM128.984 33.686C128.45 32.3465 127.114 30.0693 124.176 30.0693C121.238 30.0693 118.834 32.3465 118.834 35.8292C118.834 39.044 121.238 41.5891 124.443 41.5891C126.98 41.5891 128.583 39.9817 129.118 39.044L127.248 37.7045C126.58 38.6421 125.778 39.3119 124.443 39.3119C123.107 39.3119 122.306 38.7762 121.638 37.5706L129.251 34.3557L128.984 33.686ZM121.238 35.5614C121.238 33.4181 122.974 32.2126 124.176 32.2126C125.111 32.2126 126.046 32.7484 126.313 33.4181L121.238 35.5614ZM114.96 41.0533H117.497V24.3095H114.96V41.0533ZM110.954 31.2749C110.285 30.6051 109.217 29.9354 107.881 29.9354C105.077 29.9354 102.405 32.4804 102.405 35.6953C102.405 38.9101 104.943 41.3212 107.881 41.3212C109.217 41.3212 110.285 40.6515 110.819 39.9817H110.954V40.7854C110.954 42.9286 109.752 44.1341 107.881 44.1341C106.412 44.1341 105.344 43.0626 105.077 42.1249L102.94 43.0626C103.607 44.536 105.21 46.4113 108.015 46.4113C110.954 46.4113 113.358 44.6699 113.358 40.5175V30.3373H110.954V31.2749ZM108.015 39.178C106.279 39.178 104.809 37.7045 104.809 35.6953C104.809 33.686 106.279 32.2126 108.015 32.2126C109.752 32.2126 111.087 33.686 111.087 35.6953C111.087 37.7045 109.752 39.178 108.015 39.178ZM140.604 24.3095H134.593V41.0533H137.131V34.7576H140.604C143.408 34.7576 146.08 32.7484 146.08 29.5336C146.08 26.3187 143.408 24.3095 140.604 24.3095ZM140.737 32.4804H137.131V26.7206H140.737C142.607 26.7206 143.676 28.328 143.676 29.5336C143.542 30.8731 142.473 32.4804 140.737 32.4804ZM156.097 30.0693C154.226 30.0693 152.357 30.8731 151.689 32.6144L153.96 33.5521C154.494 32.6144 155.295 32.3465 156.23 32.3465C157.566 32.3465 158.768 33.1503 158.901 34.4897V34.6237C158.501 34.3557 157.432 33.9539 156.364 33.9539C153.96 33.9539 151.555 35.2934 151.555 37.7045C151.555 39.9817 153.559 41.4551 155.696 41.4551C157.432 41.4551 158.233 40.6515 158.901 39.8478H159.034V41.1873H161.439V34.7576C161.172 31.6768 158.901 30.0693 156.097 30.0693ZM155.829 39.178C155.028 39.178 153.826 38.7762 153.826 37.7045C153.826 36.365 155.295 35.9632 156.497 35.9632C157.566 35.9632 158.1 36.2311 158.768 36.499C158.501 38.1064 157.165 39.178 155.829 39.178ZM169.853 30.3373L167.049 37.5706H166.915L163.977 30.3373H161.305L165.713 40.5175L163.175 46.1434H165.713L172.524 30.3373H169.853ZM147.415 41.0533H149.952V24.3095H147.415V41.0533Z" fill="white"/>
<path d="M17.8619 44.4032C17.3276 44.1354 17.0605 43.4656 17.0605 42.7959C17.0605 42.6619 17.0605 42.394 17.0605 42.2601C17.0605 32.3477 17.0605 22.4354 17.0605 12.657C17.0605 12.1212 17.1941 11.7194 17.3276 11.1836C17.4613 10.9156 17.7283 10.6477 17.9955 10.3799C23.7385 16.1397 29.348 21.8995 34.9575 27.6595C29.2145 33.0174 23.605 38.6434 17.8619 44.4032Z" fill="white"/>
<path d="M40.5673 21.7641C38.9646 23.3716 37.2283 24.9789 35.6256 26.7203C30.2832 21.2283 24.8073 15.7364 19.4648 10.2444C19.4648 10.2444 19.4648 10.1105 19.5984 10.1105C26.5435 13.995 33.4886 17.8796 40.5673 21.7641Z" fill="white"/>
<path d="M19.4648 44.4031C24.8073 39.0451 30.2832 33.6871 35.6256 28.3291C37.0947 29.8025 38.6975 31.276 40.4338 32.8834C33.4886 36.768 26.5435 40.6525 19.5984 44.4031H19.4648Z" fill="white"/>
<path d="M41.3692 32.3464C39.6329 30.7391 38.0302 29.1316 36.2939 27.5243C38.0302 25.7829 39.7665 24.0415 41.5027 22.3002C42.037 22.568 42.5712 22.836 43.1055 23.2378C44.4411 24.0415 45.9103 24.7113 47.2459 25.515C47.6466 25.6489 47.9136 25.9168 48.1807 26.3186C48.715 26.9884 48.715 27.6582 48.1807 28.3279C47.9136 28.5958 47.6466 28.8638 47.2459 28.9977C45.376 30.2032 43.3726 31.2749 41.3692 32.3464Z" fill="white"/>
</g>
<defs>
<clipPath id="clip0_548_2158">
<rect width="190" height="56" fill="white"/>
</clipPath>
</defs>
</svg>
